<?xml version="1.0" encoding="utf-8"?>
<!-- Generator: Adobe Illustrator 23.0.2, SVG Export Plug-In . SVG Version: 6.00 Build 0)  -->
<svg version="1.1" id="Layer_1" xmlns="http://www.w3.org/2000/svg" xmlns:xlink="http://www.w3.org/1999/xlink" x="0px" y="0px"
	 viewBox="0 0 1000 659.66" style="enable-background:new 0 0 1000 659.66;" xml:space="preserve">
<style type="text/css">
	.st0{fill:url(#SVGID_1_);}
	.st1{fill:#1084B1;}
	.st2{fill:url(#SVGID_2_);}
	.st3{fill:url(#SVGID_3_);}
	.st4{fill:url(#SVGID_4_);}
	.st5{fill:url(#SVGID_5_);}
	.st6{fill:url(#SVGID_6_);}
	.st7{fill:url(#SVGID_7_);}
</style>
<g>
	<linearGradient id="SVGID_1_" gradientUnits="userSpaceOnUse" x1="537.6268" y1="459.7927" x2="537.6268" y2="359.1414">
		<stop  offset="0" style="stop-color:#1084B1"/>
		<stop  offset="1" style="stop-color:#ED7D30"/>
	</linearGradient>
	<path class="st0" d="M295.88,419.74c3.16,4.11,4.76,8.69,4.76,13.61c0,7.12-2.72,13.38-8.09,18.59
		c-5.36,5.21-11.96,7.85-19.61,7.85c-5.93,0-11.37-1.6-16.18-4.74c-4.77-3.12-9.19-8.38-13.13-15.62l-0.58-1.07l10.11-6.09
		l0.63,1.17c5.31,9.79,11.44,14.76,18.21,14.76c2.92,0,5.71-0.69,8.28-2.05c2.55-1.35,4.5-3.16,5.79-5.37
		c1.31-2.23,1.97-4.64,1.97-7.16c0-2.82-0.98-5.67-2.92-8.46c-2.81-3.97-8.06-8.12-15.62-12.33c-8.13-6.1-12.95-10.37-14.9-13.16
		c-3.44-4.53-5.2-9.59-5.2-15.01c0-4.28,1.03-8.22,3.07-11.71c2.04-3.5,4.96-6.31,8.7-8.37c3.72-2.05,7.81-3.09,12.16-3.09
		c4.57,0,8.91,1.17,12.91,3.48c3.95,2.27,8.17,6.45,12.54,12.4l0.74,1.01l-9.63,7.24l-0.76-1.01c-3.37-4.47-6.26-7.44-8.58-8.83
		c-2.27-1.36-4.78-2.05-7.47-2.05c-3.42,0-6.15,1.01-8.31,3.08c-2.15,2.06-3.19,4.5-3.19,7.48c0,1.83,0.39,3.65,1.15,5.41
		c0.77,1.77,2.24,3.71,4.37,5.76c1.18,1.18,5.2,4.3,11.96,9.27C287.17,410.7,292.83,415.76,295.88,419.74z M380.51,387.52h-16.85
		l-30.16,26.29l0-52.98h-11.47l0,98.26h11.47l0-31.69l5.93-4.87l26.77,36.57l15.72,0l-31.88-43.89L380.51,387.52z M393.69,459.1
		h11.41l0-71.57h-11.41L393.69,459.1z M399.37,359.14c-2.35,0-4.39,0.85-6.06,2.51c-1.67,1.67-2.51,3.7-2.51,6.06
		c0,2.35,0.84,4.4,2.5,6.08c1.67,1.69,3.71,2.55,6.07,2.55c2.35,0,4.4-0.85,6.09-2.54c1.69-1.69,2.54-3.73,2.54-6.09
		c0-2.36-0.86-4.4-2.55-6.07C403.76,359.98,401.72,359.14,399.37,359.14z M427.29,459.1h11.47l0-98.26h-11.47L427.29,459.1z
		 M460.95,459.1h11.47l0-98.26h-11.47L460.95,459.1z M488.2,374.71h20.83l0,84.27l12.04,0l0-84.27h20.89l0-11.6l-53.77,0
		L488.2,374.71z M574.42,385.64c-3.57,0-7.84,1.72-13.05,5.25c-5.14,3.48-9.28,9.01-12.26,16.36c-1.31,2.7-2.32,6.23-3.02,10.69
		l0,41.04h11.6v-24.62c0-10.58,0.54-17.85,1.57-21.56c1.4-4.19,3.97-8.13,7.64-11.7c3.49-3.4,6.86-4.43,10.29-3.18l0.97,0.35
		l5.83-9.42l-1.14-0.65C579.9,386.5,577.06,385.64,574.42,385.64z M600.59,359.14c-2.35,0-4.39,0.85-6.06,2.51
		c-1.67,1.67-2.51,3.7-2.51,6.06c0,2.35,0.84,4.4,2.5,6.08c1.67,1.69,3.71,2.55,6.07,2.55c2.35,0,4.4-0.85,6.09-2.54
		c1.69-1.69,2.54-3.73,2.54-6.09c0-2.36-0.86-4.4-2.55-6.07C604.99,359.98,602.94,359.14,600.59,359.14z M594.92,459.1h11.41
		l0-71.57h-11.41L594.92,459.1z M690.09,436.97c-6.14,7.7-14.19,11.6-23.93,11.6c-5.3,0-10.13-1.17-14.37-3.49
		c-4.22-2.31-7.59-5.63-10.02-9.87c-2.44-4.25-3.67-8.83-3.67-13.62c0-7.37,2.68-13.71,7.95-18.85c5.29-5.15,12.05-7.76,20.1-7.76
		c10.2,0,18.02,3.83,23.91,11.7l0.7,0.94l9.09-5.68l-0.63-1.07c-2.13-3.61-4.79-6.63-7.88-8.96c-3.08-2.32-6.86-4.22-11.23-5.64
		s-8.94-2.14-13.57-2.14c-7.48,0-14.33,1.67-20.34,4.97c-6.03,3.31-10.85,7.97-14.33,13.87c-3.48,5.9-5.24,12.39-5.24,19.3
		c0,10.22,3.76,19.01,11.18,26.15c7.41,7.13,16.82,10.74,27.97,10.74c7.29,0,13.88-1.41,19.59-4.19c5.74-2.79,10.38-6.8,13.81-11.92
		l0.72-1.07l-9.09-5.92L690.09,436.97z M779.95,387.52H763.1l-30.16,26.29l0-52.98h-11.47l0,98.26h11.47l0-31.69l5.93-4.87
		l26.77,36.57l15.72,0l-31.88-43.89L779.95,387.52z M828.03,426.05c-2.49-3.38-7.04-6.74-13.91-10.26
		c-5.22-2.67-8.66-5.03-10.25-7.06c-1.53-1.79-2.28-3.58-2.28-5.47c0-2.25,0.87-4.15,2.67-5.8c1.83-1.68,3.98-2.5,6.57-2.5
		c4.13,0,8.51,2.21,13.03,6.56l0.91,0.88l7.42-7.75l-0.91-0.88c-6.68-6.42-13.43-9.67-20.07-9.67c-5.72,0-10.56,1.87-14.38,5.55
		c-3.83,3.69-5.77,8.4-5.77,13.97c0,4.28,1.22,8.14,3.63,11.43c2.37,3.39,6.68,6.64,13.18,9.9c5.61,2.89,9.23,5.28,10.74,7.11
		c1.45,1.75,2.16,3.71,2.16,5.99c0,2.71-1.09,5.03-3.33,7.09c-2.27,2.08-4.95,3.1-8.17,3.1c-4.68,0-9.2-2.44-13.46-7.25l-0.95-1.08
		l-7.24,8.22l0.64,0.83c2.46,3.21,5.63,5.74,9.44,7.52c3.78,1.77,7.8,2.67,11.96,2.67c6.28,0,11.58-2.1,15.78-6.25
		c4.2-4.15,6.32-9.27,6.32-15.22c0-4.27-1.24-8.19-3.7-11.62L828.03,426.05z"/>
	<g>
		<path class="st1" d="M264.87,476.18v6.02h-15.06v6.23h13.55v5.76h-13.55v6.28h15.54v5.97h-22.29v-30.25H264.87z"/>
		<path class="st1" d="M301.18,476.18h6.75v30.25h-6.75l-14.41-18.96v18.96h-6.75v-30.25h6.32l14.84,19.48V476.18z"/>
		<path class="st1" d="M347.14,480.14c2.88,2.64,4.33,6.31,4.33,11.01c0,4.7-1.41,8.42-4.22,11.17c-2.81,2.74-7.1,4.11-12.88,4.11
			h-10.34v-30.25h10.69C340.12,476.18,344.26,477.5,347.14,480.14z M342.19,498.12c1.66-1.56,2.49-3.82,2.49-6.79
			s-0.83-5.26-2.49-6.86c-1.66-1.6-4.2-2.4-7.64-2.4h-3.77v18.39h4.28C338.15,500.46,340.53,499.68,342.19,498.12z"/>
		<path class="st1" d="M373.98,498.62c1.13,1.4,2.64,2.1,4.54,2.1s3.41-0.7,4.52-2.1c1.11-1.4,1.67-3.31,1.67-5.73v-16.71h6.75
			v16.92c0,4.39-1.21,7.75-3.64,10.11c-2.42,2.35-5.53,3.53-9.3,3.53s-6.89-1.18-9.33-3.55c-2.44-2.37-3.66-5.73-3.66-10.08v-16.92
			h6.75v16.71C372.29,495.31,372.85,497.22,373.98,498.62z"/>
		<path class="st1" d="M431.67,486.22c0,4.85-1.92,7.98-5.76,9.39l7.66,10.82h-8.31l-6.71-9.65h-4.67v9.65h-6.75v-30.25h11.47
			c4.7,0,8.06,0.79,10.06,2.38C430.66,480.15,431.67,482.7,431.67,486.22z M423.53,489.81c0.84-0.75,1.26-1.94,1.26-3.57
			s-0.43-2.75-1.3-3.35c-0.87-0.61-2.38-0.91-4.54-0.91h-5.06v8.96h4.93C421.12,490.94,422.69,490.56,423.53,489.81z"/>
		<path class="st1" d="M447.25,476.18H454v30.25h-6.75V476.18z"/>
		<path class="st1" d="M491.26,476.18h6.75v30.25h-6.75l-14.41-18.96v18.96h-6.75v-30.25h6.32l14.84,19.48V476.18z"/>
		<path class="st1" d="M533.76,491.02h6.79v10.73c-3,3.35-7.16,5.02-12.46,5.02c-4.44,0-8.17-1.47-11.19-4.41
			c-3.02-2.94-4.52-6.66-4.52-11.14c0-4.49,1.54-8.23,4.61-11.23c3.07-3,6.78-4.5,11.12-4.5c4.34,0,8.11,1.43,11.32,4.28l-3.51,5.06
			c-1.36-1.18-2.6-2-3.74-2.44c-1.14-0.45-2.37-0.67-3.7-0.67c-2.57,0-4.73,0.87-6.49,2.62c-1.76,1.75-2.64,4.05-2.64,6.9
			c0,2.86,0.84,5.14,2.53,6.86c1.69,1.72,3.7,2.57,6.04,2.57c2.34,0,4.28-0.45,5.84-1.34V491.02z"/>
		<path class="st1" d="M582.39,482.22c-0.65,0.53-0.97,1.24-0.97,2.12s0.4,1.58,1.19,2.1c0.79,0.52,2.63,1.13,5.5,1.84
			c2.87,0.71,5.1,1.77,6.69,3.18c1.59,1.41,2.38,3.48,2.38,6.19c0,2.71-1.02,4.91-3.05,6.6c-2.03,1.69-4.71,2.53-8.03,2.53
			c-4.79,0-9.1-1.77-12.94-5.32l4.03-4.93c3.26,2.86,6.28,4.28,9.05,4.28c1.24,0,2.21-0.27,2.92-0.8c0.71-0.53,1.06-1.26,1.06-2.16
			c0-0.91-0.38-1.63-1.13-2.16c-0.75-0.53-2.24-1.07-4.46-1.62c-3.52-0.84-6.1-1.93-7.73-3.27c-1.63-1.34-2.44-3.45-2.44-6.32
			c0-2.87,1.03-5.09,3.09-6.64c2.06-1.56,4.64-2.34,7.73-2.34c2.02,0,4.04,0.35,6.06,1.04c2.02,0.69,3.78,1.67,5.28,2.94l-3.42,4.93
			c-2.63-1.99-5.34-2.99-8.14-2.99C583.92,481.42,583.03,481.68,582.39,482.22z"/>
		<path class="st1" d="M619.58,498.62c1.13,1.4,2.64,2.1,4.54,2.1c1.9,0,3.41-0.7,4.52-2.1c1.11-1.4,1.67-3.31,1.67-5.73v-16.71
			h6.75v16.92c0,4.39-1.21,7.75-3.64,10.11c-2.42,2.35-5.53,3.53-9.3,3.53c-3.78,0-6.89-1.18-9.33-3.55
			c-2.44-2.37-3.66-5.73-3.66-10.08v-16.92h6.75v16.71C617.9,495.31,618.46,497.22,619.58,498.62z"/>
		<path class="st1" d="M666.63,500.46c3.32,0,6.03-1.31,8.14-3.94l4.33,4.46c-3.43,3.87-7.48,5.8-12.14,5.8
			c-4.66,0-8.5-1.47-11.51-4.41c-3.01-2.94-4.52-6.66-4.52-11.14c0-4.49,1.54-8.23,4.61-11.23c3.07-3,6.83-4.5,11.27-4.5
			c4.96,0,9.12,1.89,12.46,5.67l-4.2,4.76c-2.14-2.65-4.79-3.98-7.96-3.98c-2.54,0-4.71,0.83-6.51,2.49c-1.8,1.66-2.7,3.89-2.7,6.71
			c0,2.81,0.85,5.07,2.55,6.77C662.14,499.61,664.2,500.46,666.63,500.46z"/>
		<path class="st1" d="M706.96,500.46c3.32,0,6.03-1.31,8.14-3.94l4.33,4.46c-3.43,3.87-7.48,5.8-12.14,5.8
			c-4.66,0-8.5-1.47-11.51-4.41c-3.01-2.94-4.52-6.66-4.52-11.14c0-4.49,1.54-8.23,4.61-11.23c3.07-3,6.83-4.5,11.27-4.5
			c4.96,0,9.12,1.89,12.46,5.67l-4.2,4.76c-2.14-2.65-4.79-3.98-7.96-3.98c-2.54,0-4.71,0.83-6.51,2.49c-1.8,1.66-2.7,3.89-2.7,6.71
			c0,2.81,0.85,5.07,2.55,6.77C702.48,499.61,704.54,500.46,706.96,500.46z"/>
		<path class="st1" d="M755.22,476.18v6.02h-15.06v6.23h13.55v5.76h-13.55v6.28h15.54v5.97h-22.29v-30.25H755.22z"/>
		<path class="st1" d="M777.44,482.22c-0.65,0.53-0.97,1.24-0.97,2.12s0.4,1.58,1.19,2.1c0.79,0.52,2.63,1.13,5.5,1.84
			c2.87,0.71,5.1,1.77,6.69,3.18c1.59,1.41,2.38,3.48,2.38,6.19c0,2.71-1.02,4.91-3.05,6.6c-2.03,1.69-4.71,2.53-8.03,2.53
			c-4.79,0-9.1-1.77-12.94-5.32l4.03-4.93c3.26,2.86,6.28,4.28,9.05,4.28c1.24,0,2.21-0.27,2.92-0.8c0.71-0.53,1.06-1.26,1.06-2.16
			c0-0.91-0.38-1.63-1.13-2.16c-0.75-0.53-2.24-1.07-4.46-1.62c-3.52-0.84-6.1-1.93-7.73-3.27c-1.63-1.34-2.44-3.45-2.44-6.32
			c0-2.87,1.03-5.09,3.09-6.64c2.06-1.56,4.64-2.34,7.73-2.34c2.02,0,4.04,0.35,6.06,1.04c2.02,0.69,3.78,1.67,5.28,2.94l-3.42,4.93
			c-2.63-1.99-5.34-2.99-8.14-2.99C778.98,481.42,778.09,481.68,777.44,482.22z"/>
		<path class="st1" d="M813.71,482.22c-0.65,0.53-0.97,1.24-0.97,2.12s0.4,1.58,1.19,2.1c0.79,0.52,2.63,1.13,5.5,1.84
			c2.87,0.71,5.1,1.77,6.69,3.18c1.59,1.41,2.38,3.48,2.38,6.19c0,2.71-1.02,4.91-3.05,6.6c-2.03,1.69-4.71,2.53-8.03,2.53
			c-4.79,0-9.1-1.77-12.94-5.32l4.03-4.93c3.26,2.86,6.28,4.28,9.05,4.28c1.24,0,2.21-0.27,2.92-0.8c0.71-0.53,1.06-1.26,1.06-2.16
			c0-0.91-0.38-1.63-1.13-2.16c-0.75-0.53-2.24-1.07-4.46-1.62c-3.52-0.84-6.1-1.93-7.73-3.27c-1.63-1.34-2.44-3.45-2.44-6.32
			c0-2.87,1.03-5.09,3.09-6.64c2.06-1.56,4.64-2.34,7.73-2.34c2.02,0,4.04,0.35,6.06,1.04c2.02,0.69,3.78,1.67,5.28,2.94l-3.42,4.93
			c-2.63-1.99-5.34-2.99-8.14-2.99C815.25,481.42,814.36,481.68,813.71,482.22z"/>
	</g>
</g>
<g>
	<linearGradient id="SVGID_2_" gradientUnits="userSpaceOnUse" x1="469.1001" y1="150.3986" x2="607.7666" y2="150.3986">
		<stop  offset="0" style="stop-color:#1084B1"/>
		<stop  offset="1" style="stop-color:#ED7D30"/>
	</linearGradient>
	<!--path class="st2" d="M483.74,154.68L483.74,154.68c-3.71,1.63-4.46,3.38-4.46,5.09c0,3,2.29,6.11,18.87,8.54
		c10.78,1.57,25.09,2.43,40.29,2.43s29.51-0.87,40.29-2.43c16.58-2.42,18.87-5.54,18.87-8.54c0-1.71-0.75-3.46-4.46-5.09
		c-3.8,0.97-8.09,1.76-12.55,2.4c5.21,0.87,8.85,1.81,10.66,2.7c-5.07,2.47-24.53,5.51-52.8,5.51c-28.28,0-47.73-3.04-52.8-5.51
		c1.8-0.88,5.45-1.83,10.66-2.7c18.73,2.68,40.55,2.73,42.14,2.73c1.6,0,23.41-0.05,42.14-2.73c4.46-0.64,8.75-1.42,12.55-2.4
		c8.56-2.18,14.64-5.3,14.64-9.75c0-14.71-66.5-14.87-69.33-14.87c-2.83,0-69.33,0.16-69.33,14.87
		C469.1,149.38,475.18,152.49,483.74,154.68z M538.43,135.53c39.59,0,62.02,5.96,63.83,9.4c-1,1.91-8.37,4.6-21.52,6.61
		c-9.44,1.45-21.85,2.55-37.02,2.76h-0.09c-1.69,0.03-3.43,0.04-5.19,0.04c-1.77,0-3.5-0.01-5.19-0.04h-0.09
		c-15.17-0.21-27.59-1.31-37.02-2.76c-13.14-2.01-20.52-4.7-21.52-6.61C476.41,141.49,498.84,135.53,538.43,135.53z"/>
	<linearGradient id="SVGID_3_" gradientUnits="userSpaceOnUse" x1="484.576" y1="118.6424" x2="592.2907" y2="118.6424">
		<stop  offset="0" style="stop-color:#1084B1"/>
		<stop  offset="1" style="stop-color:#ED7D30"/>
	</linearGradient>
	<path class="st3" d="M538.35,119.45c8.98-0.09,17.96,0.05,26.94,0.36c8.99,0.37,17.95,0.91,27,2c-8.53-3.3-17.6-5.08-26.65-6.25
		c-9.07-1.19-18.21-1.66-27.34-1.58c-9.13,0.08-18.27,0.71-27.32,2.09c-4.53,0.66-9.02,1.57-13.46,2.69
		c-4.42,1.19-8.83,2.55-12.94,4.54c8.95-1.7,17.89-2.42,26.86-3C520.4,119.81,529.37,119.51,538.35,119.45z"/>
	<linearGradient id="SVGID_4_" gradientUnits="userSpaceOnUse" x1="497.2668" y1="107.0988" x2="579.5999" y2="107.0988">
		<stop  offset="0" style="stop-color:#1084B1"/>
		<stop  offset="1" style="stop-color:#ED7D30"/>
	</linearGradient>
	<path class="st4" d="M517.77,108.79c6.84-0.54,13.7-0.81,20.56-0.88c6.86-0.08,13.73,0.03,20.59,0.38
		c6.88,0.34,13.72,0.91,20.68,1.98c-6.29-3.26-13.26-5.05-20.21-6.26c-6.98-1.16-14.06-1.67-21.13-1.57
		c-7.07,0.08-14.14,0.74-21.09,2.11c-3.48,0.68-6.91,1.6-10.28,2.73c-3.34,1.19-6.66,2.56-9.62,4.49c3.44-0.82,6.82-1.45,10.24-1.89
		C510.92,109.38,514.35,109.08,517.77,108.79z"/>
	<linearGradient id="SVGID_5_" gradientUnits="userSpaceOnUse" x1="537.4839" y1="302.335" x2="537.4839" y2="186.6178">
		<stop  offset="0" style="stop-color:#1084B1"/>
		<stop  offset="1" style="stop-color:#ED7D30"/>
	</linearGradient>
	<path class="st5" d="M593.48,289.56l-9.51,12.77c-5.09-10.74-11.1-23.19-14.1-28.59c-5.8-10.45-3.09-23.98-19.71-44.85
		c-3.87-6.19-5.81-10.06-5.81-10.06l-6.97-15.72l-6.97,15.72c0,0-1.94,3.87-5.81,10.06c-16.62,20.88-13.92,34.41-19.71,44.85
		c-2.97,5.34-8.86,17.53-13.91,28.18l-9.49-12.75l55.33-101.57l0.01-0.03l0.28-0.48l0.26-0.48l0.01,0.01l0.01-0.01l0.26,0.48
		l0.28,0.48v0.03L593.48,289.56z"/>
	<linearGradient id="SVGID_6_" gradientUnits="userSpaceOnUse" x1="443.4847" y1="337.6287" x2="443.4847" y2="232.4618">
		<stop  offset="0" style="stop-color:#1084B1"/>
		<stop  offset="1" style="stop-color:#ED7D30"/>
	</linearGradient>
	<path class="st6" d="M490.98,301.93c-1.68,3.54-3.27,6.92-4.62,9.81l-9.63-13.82l-34.84-49.99l-2.33,15.24l-8.83,9.23l-34.74,65.22
		l43.27-105.17l42.23,56.71L490.98,301.93z"/>
	<linearGradient id="SVGID_7_" gradientUnits="userSpaceOnUse" x1="631.6157" y1="337.6287" x2="631.6157" y2="232.4618">
		<stop  offset="0" style="stop-color:#1084B1"/>
		<stop  offset="1" style="stop-color:#ED7D30"/>
	</linearGradient>
	<path class="st7" d="M679.27,337.63l-34.74-65.22l-8.84-9.23l-2.32-15.24l-35.12,50.38l-9.65,13.85c-1.36-2.88-2.94-6.25-4.63-9.83
		l9.51-12.77l42.52-57.1L679.27,337.63z"/-->
</g>
</svg>
